<svg xmlns="http://www.w3.org/2000/svg" xmlns:xlink="http://www.w3.org/1999/xlink" width="2000" zoomAndPan="magnify" viewBox="0 0 1500 1949.99992" height="2600" preserveAspectRatio="xMidYMid meet" version="1.0"><defs><clipPath id="b9c89ff08f"><path d="M 347.21875 1432.601562 L 1229.148438 1432.601562 L 1229.148438 1950 L 347.21875 1950 Z M 347.21875 1432.601562 " clip-rule="nonzero"/></clipPath><clipPath id="f822e46053"><path d="M 788.183594 1432.601562 C 544.644531 1432.601562 347.21875 1630.027344 347.21875 1873.566406 C 347.21875 2117.105469 544.644531 2314.53125 788.183594 2314.53125 C 1031.722656 2314.53125 1229.148438 2117.105469 1229.148438 1873.566406 C 1229.148438 1630.027344 1031.722656 1432.601562 788.183594 1432.601562 Z M 788.183594 1432.601562 " clip-rule="nonzero"/></clipPath><clipPath id="772c8b0aa1"><path d="M 375.527344 1460.90625 L 1200.527344 1460.90625 L 1200.527344 1950 L 375.527344 1950 Z M 375.527344 1460.90625 " clip-rule="nonzero"/></clipPath><clipPath id="32c87800a9"><path d="M 788.183594 1460.90625 C 560.28125 1460.90625 375.527344 1645.660156 375.527344 1873.566406 C 375.527344 2101.46875 560.28125 2286.222656 788.183594 2286.222656 C 1016.089844 2286.222656 1200.84375 2101.46875 1200.84375 1873.566406 C 1200.84375 1645.660156 1016.089844 1460.90625 788.183594 1460.90625 Z M 788.183594 1460.90625 " clip-rule="nonzero"/></clipPath><clipPath id="7bf6b9dbee"><path d="M 1229.160156 890.921875 L 1500 890.921875 L 1500 1432.59375 L 1229.160156 1432.59375 Z M 1229.160156 890.921875 " clip-rule="nonzero"/></clipPath><clipPath id="d6e1d93681"><path d="M 1499.996094 890.921875 C 1350.417969 890.921875 1229.160156 1012.179688 1229.160156 1161.757812 C 1229.160156 1311.335938 1350.417969 1432.59375 1499.996094 1432.59375 C 1649.574219 1432.59375 1770.832031 1311.335938 1770.832031 1161.757812 C 1770.832031 1012.179688 1649.574219 890.921875 1499.996094 890.921875 Z M 1499.996094 890.921875 " clip-rule="nonzero"/></clipPath><clipPath id="cfff6214f9"><path d="M 1246.546875 908.308594 L 1500 908.308594 L 1500 1415.015625 L 1246.546875 1415.015625 Z M 1246.546875 908.308594 " clip-rule="nonzero"/></clipPath><clipPath id="e64547bc58"><path d="M 1499.996094 908.308594 C 1360.019531 908.308594 1246.546875 1021.78125 1246.546875 1161.757812 C 1246.546875 1301.734375 1360.019531 1415.207031 1499.996094 1415.207031 C 1639.972656 1415.207031 1753.445312 1301.734375 1753.445312 1161.757812 C 1753.445312 1021.78125 1639.972656 908.308594 1499.996094 908.308594 Z M 1499.996094 908.308594 " clip-rule="nonzero"/></clipPath><clipPath id="855a24b81d"><path d="M 0 533.96875 L 248.214844 533.96875 L 248.214844 974.992188 L 0 974.992188 Z M 0 533.96875 " clip-rule="nonzero"/></clipPath><clipPath id="e6142c6774"><path d="M 27.703125 533.96875 C -94.082031 533.96875 -192.808594 632.695312 -192.808594 754.480469 C -192.808594 876.265625 -94.082031 974.992188 27.703125 974.992188 C 149.488281 974.992188 248.214844 876.265625 248.214844 754.480469 C 248.214844 632.695312 149.488281 533.96875 27.703125 533.96875 Z M 27.703125 533.96875 " clip-rule="nonzero"/></clipPath><clipPath id="2b79a1ae04"><path d="M 0 548.125 L 233.902344 548.125 L 233.902344 960.679688 L 0 960.679688 Z M 0 548.125 " clip-rule="nonzero"/></clipPath><clipPath id="070a6a2def"><path d="M 27.703125 548.125 C -86.265625 548.125 -178.65625 640.511719 -178.65625 754.480469 C -178.65625 868.449219 -86.265625 960.839844 27.703125 960.839844 C 141.671875 960.839844 234.0625 868.449219 234.0625 754.480469 C 234.0625 640.511719 141.671875 548.125 27.703125 548.125 Z M 27.703125 548.125 " clip-rule="nonzero"/></clipPath></defs><g clip-path="url(#b9c89ff08f)"><g clip-path="url(#f822e46053)"><path stroke-linecap="butt" transform="matrix(0.75, 0, 0, 0.75, 347.219474, 1432.600778)" fill="none" stroke-linejoin="miter" d="M 587.952208 0.00104662 C 263.233431 0.00104662 -0.000965409 263.235443 -0.000965409 587.95422 C -0.000965409 912.672997 263.233431 1175.907394 587.952208 1175.907394 C 912.670985 1175.907394 1175.905382 912.672997 1175.905382 587.95422 C 1175.905382 263.235443 912.670985 0.00104662 587.952208 0.00104662 Z M 587.952208 0.00104662 " stroke="#00fff5" stroke-width="12" stroke-opacity="1" stroke-miterlimit="4"/></g></g><g clip-path="url(#772c8b0aa1)"><g clip-path="url(#32c87800a9)"><path stroke-linecap="butt" transform="matrix(0.75, 0, 0, 0.75, 375.526289, 1460.907527)" fill="none" stroke-linejoin="miter" d="M 550.209786 -0.00170293 C 246.339969 -0.00170293 0.00140698 246.336859 0.00140698 550.211884 C 0.00140698 854.081701 246.339969 1100.420263 550.209786 1100.420263 C 854.084811 1100.420263 1100.423373 854.081701 1100.423373 550.211884 C 1100.423373 246.336859 854.084811 -0.00170293 550.209786 -0.00170293 Z M 550.209786 -0.00170293 " stroke="#facc15" stroke-width="12" stroke-opacity="1" stroke-miterlimit="4"/></g></g><g clip-path="url(#7bf6b9dbee)"><g clip-path="url(#d6e1d93681)"><path stroke-linecap="butt" transform="matrix(0.460642, 0, 0, 0.460642, 1229.160625, 890.922406)" fill="none" stroke-linejoin="miter" d="M 587.95271 -0.00115345 C 263.235772 -0.00115345 -0.00101788 263.235637 -0.00101788 587.952574 C -0.00101788 912.669511 263.235772 1175.906302 587.95271 1175.906302 C 912.669647 1175.906302 1175.906437 912.669511 1175.906437 587.952574 C 1175.906437 263.235637 912.669647 -0.00115345 587.95271 -0.00115345 Z M 587.95271 -0.00115345 " stroke="#00fff5" stroke-width="19.537966" stroke-opacity="1" stroke-miterlimit="4"/></g></g><g clip-path="url(#cfff6214f9)"><g clip-path="url(#e64547bc58)"><path stroke-linecap="butt" transform="matrix(0.460642, 0, 0, 0.460642, 1246.54656, 908.308221)" fill="none" stroke-linejoin="miter" d="M 550.209784 0.000809436 C 246.336769 0.000809436 0.000684503 246.336893 0.000684503 550.209909 C 0.000684503 854.082925 246.336769 1100.419009 550.209784 1100.419009 C 854.0828 1100.419009 1100.418884 854.082925 1100.418884 550.209909 C 1100.418884 246.336893 854.0828 0.000809436 550.209784 0.000809436 Z M 550.209784 0.000809436 " stroke="#facc15" stroke-width="19.537966" stroke-opacity="1" stroke-miterlimit="4"/></g></g><g clip-path="url(#855a24b81d)"><g clip-path="url(#e6142c6774)"><path stroke-linecap="butt" transform="matrix(0.375052, 0, 0, 0.375052, -192.80985, 533.967964)" fill="none" stroke-linejoin="miter" d="M 587.952874 0.00209612 C 263.237593 0.00209612 0.00334977 263.236339 0.00334977 587.95162 C 0.00334977 912.6669 263.237593 1175.901144 587.952874 1175.901144 C 912.668154 1175.901144 1175.902397 912.6669 1175.902397 587.95162 C 1175.902397 263.236339 912.668154 0.00209612 587.952874 0.00209612 Z M 587.952874 0.00209612 " stroke="#00fff5" stroke-width="23.996662" stroke-opacity="1" stroke-miterlimit="4"/></g></g><g clip-path="url(#2b79a1ae04)"><g clip-path="url(#070a6a2def)"><path stroke-linecap="butt" transform="matrix(0.375052, 0, 0, 0.375052, -178.654466, 548.123331)" fill="none" stroke-linejoin="miter" d="M 550.21043 0.00445092 C 246.336003 0.00445092 -0.00475545 246.334794 -0.00475545 550.209221 C -0.00475545 854.083649 246.336003 1100.424407 550.21043 1100.424407 C 854.084858 1100.424407 1100.425616 854.083649 1100.425616 550.209221 C 1100.425616 246.334794 854.084858 0.00445092 550.21043 0.00445092 Z M 550.21043 0.00445092 " stroke="#facc15" stroke-width="23.996662" stroke-opacity="1" stroke-miterlimit="4"/></g></g></svg>