<svg xmlns="http://www.w3.org/2000/svg" xmlns:xlink="http://www.w3.org/1999/xlink" width="2600" zoomAndPan="magnify" viewBox="0 0 1950 1949.99992" height="2600" preserveAspectRatio="xMidYMid meet" version="1.0"><defs><clipPath id="f68e797002"><path d="M 1365.65625 0 L 1950 0 L 1950 634.433594 L 1365.65625 634.433594 Z M 1365.65625 0 " clip-rule="nonzero"/></clipPath><clipPath id="ac25bbd112"><path d="M 1805.09375 -244.445312 C 1562.398438 -244.445312 1365.65625 -47.699219 1365.65625 194.996094 C 1365.65625 437.6875 1562.398438 634.433594 1805.09375 634.433594 C 2047.789062 634.433594 2244.53125 437.6875 2244.53125 194.996094 C 2244.53125 -47.699219 2047.789062 -244.445312 1805.09375 -244.445312 Z M 1805.09375 -244.445312 " clip-rule="nonzero"/></clipPath><clipPath id="9b85dc4b7f"><path d="M 1393.867188 0 L 1950 0 L 1950 605.910156 L 1393.867188 605.910156 Z M 1393.867188 0 " clip-rule="nonzero"/></clipPath><clipPath id="2f5aae2efe"><path d="M 1805.09375 -216.234375 C 1577.980469 -216.234375 1393.867188 -32.121094 1393.867188 194.996094 C 1393.867188 422.109375 1577.980469 606.222656 1805.09375 606.222656 C 2032.210938 606.222656 2216.324219 422.109375 2216.324219 194.996094 C 2216.324219 -32.121094 2032.210938 -216.234375 1805.09375 -216.234375 Z M 1805.09375 -216.234375 " clip-rule="nonzero"/></clipPath><clipPath id="c277a59627"><path d="M 1030.796875 1020.195312 L 1570.589844 1020.195312 L 1570.589844 1559.992188 L 1030.796875 1559.992188 Z M 1030.796875 1020.195312 " clip-rule="nonzero"/></clipPath><clipPath id="8f9ef04ddd"><path d="M 1300.691406 1020.195312 C 1151.632812 1020.195312 1030.796875 1141.035156 1030.796875 1290.09375 C 1030.796875 1439.15625 1151.632812 1559.992188 1300.691406 1559.992188 C 1449.753906 1559.992188 1570.589844 1439.15625 1570.589844 1290.09375 C 1570.589844 1141.035156 1449.753906 1020.195312 1300.691406 1020.195312 Z M 1300.691406 1020.195312 " clip-rule="nonzero"/></clipPath><clipPath id="ebbf5b02dd"><path d="M 1048.121094 1037.523438 L 1553.070312 1037.523438 L 1553.070312 1542.472656 L 1048.121094 1542.472656 Z M 1048.121094 1037.523438 " clip-rule="nonzero"/></clipPath><clipPath id="0858021743"><path d="M 1300.691406 1037.523438 C 1161.203125 1037.523438 1048.121094 1150.601562 1048.121094 1290.09375 C 1048.121094 1429.585938 1161.203125 1542.667969 1300.691406 1542.667969 C 1440.183594 1542.667969 1553.265625 1429.585938 1553.265625 1290.09375 C 1553.265625 1150.601562 1440.183594 1037.523438 1300.691406 1037.523438 Z M 1300.691406 1037.523438 " clip-rule="nonzero"/></clipPath><clipPath id="65ac3bd269"><path d="M 195 364.367188 L 566.355469 364.367188 L 566.355469 735.722656 L 195 735.722656 Z M 195 364.367188 " clip-rule="nonzero"/></clipPath><clipPath id="b1b6929121"><path d="M 380.675781 364.367188 C 278.128906 364.367188 195 447.5 195 550.046875 C 195 652.59375 278.128906 735.722656 380.675781 735.722656 C 483.222656 735.722656 566.355469 652.59375 566.355469 550.046875 C 566.355469 447.5 483.222656 364.367188 380.675781 364.367188 Z M 380.675781 364.367188 " clip-rule="nonzero"/></clipPath><clipPath id="afebb1f5c1"><path d="M 206.917969 376.289062 L 554.300781 376.289062 L 554.300781 723.671875 L 206.917969 723.671875 Z M 206.917969 376.289062 " clip-rule="nonzero"/></clipPath><clipPath id="0ab29d10bd"><path d="M 380.675781 376.289062 C 284.714844 376.289062 206.917969 454.082031 206.917969 550.046875 C 206.917969 646.011719 284.714844 723.804688 380.675781 723.804688 C 476.640625 723.804688 554.4375 646.011719 554.4375 550.046875 C 554.4375 454.082031 476.640625 376.289062 380.675781 376.289062 Z M 380.675781 376.289062 " clip-rule="nonzero"/></clipPath><clipPath id="b3def49a68"><path d="M 43.394531 1595.644531 L 310.957031 1595.644531 L 310.957031 1863.210938 L 43.394531 1863.210938 Z M 43.394531 1595.644531 " clip-rule="nonzero"/></clipPath><clipPath id="bead842580"><path d="M 177.175781 1595.644531 C 103.289062 1595.644531 43.394531 1655.542969 43.394531 1729.429688 C 43.394531 1803.3125 103.289062 1863.210938 177.175781 1863.210938 C 251.0625 1863.210938 310.957031 1803.3125 310.957031 1729.429688 C 310.957031 1655.542969 251.0625 1595.644531 177.175781 1595.644531 Z M 177.175781 1595.644531 " clip-rule="nonzero"/></clipPath><clipPath id="5378640bc4"><path d="M 51.980469 1604.234375 L 302.273438 1604.234375 L 302.273438 1854.527344 L 51.980469 1854.527344 Z M 51.980469 1604.234375 " clip-rule="nonzero"/></clipPath><clipPath id="e3f7cfd1a6"><path d="M 177.175781 1604.234375 C 108.03125 1604.234375 51.980469 1660.285156 51.980469 1729.429688 C 51.980469 1798.570312 108.03125 1854.625 177.175781 1854.625 C 246.320312 1854.625 302.371094 1798.570312 302.371094 1729.429688 C 302.371094 1660.285156 246.320312 1604.234375 177.175781 1604.234375 Z M 177.175781 1604.234375 " clip-rule="nonzero"/></clipPath></defs><g clip-path="url(#f68e797002)"><g clip-path="url(#ac25bbd112)"><path stroke-linecap="butt" transform="matrix(0.747403, 0, 0, 0.747403, 1365.657119, -244.44376)" fill="none" stroke-linejoin="miter" d="M 587.951354 -0.00207748 C 263.233232 -0.00207748 -0.00116279 263.237544 -0.00116279 587.955666 C -0.00116279 912.668562 263.233232 1175.908183 587.951354 1175.908183 C 912.669477 1175.908183 1175.903872 912.668562 1175.903872 587.955666 C 1175.903872 263.237544 912.669477 -0.00207748 587.951354 -0.00207748 Z M 587.951354 -0.00207748 " stroke="#00fff5" stroke-width="12.041694" stroke-opacity="1" stroke-miterlimit="4"/></g></g><g clip-path="url(#9b85dc4b7f)"><g clip-path="url(#2f5aae2efe)"><path stroke-linecap="butt" transform="matrix(0.747403, 0, 0, 0.747403, 1393.866021, -216.234957)" fill="none" stroke-linejoin="miter" d="M 550.208798 0.000778053 C 246.338906 0.000778053 0.00156109 246.338123 0.00156109 550.213241 C 0.00156109 854.083133 246.338906 1100.420478 550.208798 1100.420478 C 854.083916 1100.420478 1100.421261 854.083133 1100.421261 550.213241 C 1100.421261 246.338123 854.083916 0.000778053 550.208798 0.000778053 Z M 550.208798 0.000778053 " stroke="#facc15" stroke-width="12.041694" stroke-opacity="1" stroke-miterlimit="4"/></g></g><g clip-path="url(#c277a59627)"><g clip-path="url(#8f9ef04ddd)"><path stroke-linecap="butt" transform="matrix(0.459047, 0, 0, 0.459047, 1030.795275, 1020.196908)" fill="none" stroke-linejoin="miter" d="M 587.949256 -0.00347489 C 263.23586 -0.00347489 0.003486 263.237409 0.003486 587.950804 C 0.003486 912.672709 263.23586 1175.905083 587.949256 1175.905083 C 912.67116 1175.905083 1175.903535 912.672709 1175.903535 587.950804 C 1175.903535 263.237409 912.67116 -0.00347489 587.949256 -0.00347489 Z M 587.949256 -0.00347489 " stroke="#00fff5" stroke-width="19.60585" stroke-opacity="1" stroke-miterlimit="4"/></g></g><g clip-path="url(#ebbf5b02dd)"><g clip-path="url(#0858021743)"><path stroke-linecap="butt" transform="matrix(0.459047, 0, 0, 0.459047, 1048.120729, 1037.522482)" fill="none" stroke-linejoin="miter" d="M 550.20706 0.00208104 C 246.341868 0.00208104 0.000793866 246.334646 0.000793866 550.208347 C 0.000793866 854.082048 246.341868 1100.423123 550.20706 1100.423123 C 854.080761 1100.423123 1100.421836 854.082048 1100.421836 550.208347 C 1100.421836 246.334646 854.080761 0.00208104 550.20706 0.00208104 Z M 550.20706 0.00208104 " stroke="#facc15" stroke-width="19.60585" stroke-opacity="1" stroke-miterlimit="4"/></g></g><g clip-path="url(#65ac3bd269)"><g clip-path="url(#b1b6929121)"><path stroke-linecap="butt" transform="matrix(0.315803, 0, 0, 0.315803, 195.000024, 364.36875)" fill="none" stroke-linejoin="miter" d="M 587.947825 -0.00494729 C 263.230086 -0.00494729 -0.0000756009 263.237584 -0.0000756009 587.955323 C -0.0000756009 912.673062 263.230086 1175.903224 587.947825 1175.903224 C 912.665565 1175.903224 1175.908096 912.673062 1175.908096 587.955323 C 1175.908096 263.237584 912.665565 -0.00494729 587.947825 -0.00494729 Z M 587.947825 -0.00494729 " stroke="#00fff5" stroke-width="28.498768" stroke-opacity="1" stroke-miterlimit="4"/></g></g><g clip-path="url(#afebb1f5c1)"><g clip-path="url(#0ab29d10bd)"><path stroke-linecap="butt" transform="matrix(0.315803, 0, 0, 0.315803, 206.919222, 376.287948)" fill="none" stroke-linejoin="miter" d="M 550.205329 0.00352883 C 246.342157 0.00352883 -0.00396874 246.337285 -0.00396874 550.212826 C -0.00396874 854.088367 246.342157 1100.422124 550.205329 1100.422124 C 854.08087 1100.422124 1100.426995 854.088367 1100.426995 550.212826 C 1100.426995 246.337285 854.08087 0.00352883 550.205329 0.00352883 Z M 550.205329 0.00352883 " stroke="#facc15" stroke-width="28.498768" stroke-opacity="1" stroke-miterlimit="4"/></g></g><g clip-path="url(#b3def49a68)"><g clip-path="url(#bead842580)"><path stroke-linecap="butt" transform="matrix(0.22754, 0, 0, 0.22754, 43.392744, 1595.645028)" fill="none" stroke-linejoin="miter" d="M 587.953563 -0.00218336 C 263.234073 -0.00218336 0.00785285 263.241204 0.00785285 587.960695 C 0.00785285 912.663018 263.234073 1175.906405 587.953563 1175.906405 C 912.673054 1175.906405 1175.899274 912.663018 1175.899274 587.960695 C 1175.899274 263.241204 912.673054 -0.00218336 587.953563 -0.00218336 Z M 587.953563 -0.00218336 " stroke="#00fff5" stroke-width="39.553455" stroke-opacity="1" stroke-miterlimit="4"/></g></g><g clip-path="url(#5378640bc4)"><g clip-path="url(#e3f7cfd1a6)"><path stroke-linecap="butt" transform="matrix(0.22754, 0, 0, 0.22754, 51.980661, 1604.232995)" fill="none" stroke-linejoin="miter" d="M 550.211103 0.00606336 C 246.332734 0.00606336 -0.000846231 246.339644 -0.000846231 550.218012 C -0.000846231 854.079214 246.332734 1100.429962 550.211103 1100.429962 C 854.089471 1100.429962 1100.423052 854.079214 1100.423052 550.218012 C 1100.423052 246.339644 854.089471 0.00606336 550.211103 0.00606336 Z M 550.211103 0.00606336 " stroke="#facc15" stroke-width="39.553455" stroke-opacity="1" stroke-miterlimit="4"/></g></g></svg>